<svg width="50" height="50" viewBox="0 0 50 50" fill="none" xmlns="http://www.w3.org/2000/svg">
<path d="M7.76595 34.6291C7.21524 34.6375 6.61504 34.7125 6.1783 35.0413C5.92045 35.2355 5.71683 35.5219 5.65467 35.8848C5.59709 36.221 5.67976 36.5133 5.76974 36.7159C5.94018 37.0995 6.24738 37.4104 6.49041 37.6203C6.75147 37.8458 7.04798 38.0471 7.32088 38.198C7.44442 38.2703 7.63121 38.4292 7.86476 38.6996C8.09256 38.9634 8.32519 39.2865 8.54498 39.6292C8.98493 40.3151 9.32118 40.9966 9.43598 41.2919C9.7351 42.1469 10.3865 43.4288 11.9117 44.3057C13.2484 45.0742 15.1316 45.4601 17.784 45.1287C17.787 45.7804 17.792 46.3953 17.7969 46.9324C17.7993 47.1962 17.8018 47.4401 17.8039 47.6601C17.8088 48.154 17.8125 48.5271 17.8125 48.7335C17.8125 48.8582 17.7674 48.9222 17.7496 48.9384C17.7433 48.9441 17.7224 48.9623 17.6633 48.976C17.6069 48.9891 17.5033 49.0006 17.338 48.9776C7.84589 45.6957 1 36.5164 1 25.6323C1 11.9991 11.7632 1 25 1C38.2368 1 49 11.9991 49 25.6323C49 36.4906 42.1467 45.7044 32.711 48.9821C32.5443 49.0103 32.4436 48.9995 32.3929 48.9881C32.3416 48.9765 32.3245 48.9611 32.3188 48.9558C32.298 48.9366 32.25 48.8628 32.25 48.7335C32.25 48.4477 32.2535 47.9529 32.2581 47.2895C32.2604 46.9588 32.263 46.5862 32.2656 46.1766C32.2734 44.95 32.2812 43.4017 32.2812 41.6846C32.2812 40.0464 31.9461 38.7118 31.4075 37.6886C33.741 37.2687 36.1173 36.4702 38.0348 34.8212C40.4666 32.7299 42 29.4156 42 24.2866C42 21.4445 41.0895 19.0832 39.5651 17.1837C39.9238 15.9657 40.3614 13.4262 39.1191 10.2419L38.9493 9.80671L38.5066 9.65765L38.1875 10.6054C38.5066 9.65765 38.5056 9.65732 38.5046 9.65698L38.5025 9.65631L38.4983 9.65491L38.4892 9.65198L38.4686 9.64562C38.4538 9.64118 38.4368 9.63635 38.4177 9.6313C38.3793 9.62119 38.3323 9.61019 38.2765 9.59949C38.1648 9.57807 38.0186 9.55803 37.8373 9.54865C37.4739 9.52985 36.9749 9.55417 36.3334 9.69167C35.1206 9.95162 33.4069 10.614 31.131 12.145C29.1726 11.6258 27.1156 11.3676 25.0625 11.3676C23.0085 11.3676 20.9506 11.626 18.9914 12.1457C16.716 10.6289 15.0043 9.96794 13.795 9.70441C13.1554 9.56504 12.6584 9.53736 12.2969 9.55272C12.1165 9.56038 11.9712 9.57872 11.8601 9.59865C11.8047 9.6086 11.7579 9.61893 11.7198 9.62845C11.7008 9.6332 11.6839 9.63776 11.6692 9.64196L11.6487 9.64797L11.6397 9.65074L11.6355 9.65206L11.6335 9.6527C11.6325 9.65302 11.6315 9.65334 11.9375 10.6054L11.6315 9.65334L11.1787 9.79885L11.0059 10.2419C9.76347 13.4265 10.2012 15.9662 10.56 17.184C9.03466 19.0886 8.125 21.4755 8.125 24.2866C8.125 29.3988 9.65008 32.7121 12.0724 34.8073C13.9847 36.4614 16.3566 37.2662 18.6909 37.6885C18.3946 38.2518 18.1589 38.9108 18.0095 39.6637C17.3759 39.9009 16.5319 40.106 15.6642 40.0242C14.6263 39.9263 13.4526 39.4132 12.4899 37.7543L12.4845 37.745L12.4789 37.7358C12.2113 37.2969 11.6792 36.5394 10.9179 35.8842C10.1597 35.2318 9.08627 34.6079 7.76595 34.6291ZM7.76595 34.6291L7.78125 35.629M7.76595 34.6291C7.76562 34.6291 7.7653 34.6291 7.76498 34.6291L7.78125 35.629M7.78125 35.629C5.6875 35.661 6.9375 36.8465 7.8125 37.3271C8.875 37.9359 10.0938 40.2107 10.375 40.9477L18.9062 40.3709C17.4687 41.0438 13.875 42.1332 11.625 38.2563C11.1562 37.4873 9.75 35.5969 7.78125 35.629Z" stroke="#8F55EF" stroke-width="2"/>
</svg>
