<svg width="46" height="43" viewBox="0 0 46 43" fill="none" xmlns="http://www.w3.org/2000/svg">
<path d="M1 38V4C1 2.34315 2.34315 1 4 1H42C43.6569 1 45 2.34315 45 4V38C45 39.6569 43.6569 41 42 41H4C2.34315 41 1 39.6569 1 38Z" stroke="#8F55EF" stroke-width="2"/>
<path d="M14.144 14.752C13.304 14.752 12.6133 14.5093 12.072 14.024C11.5493 13.52 11.288 12.904 11.288 12.176C11.288 11.4293 11.5493 10.8133 12.072 10.328C12.6133 9.824 13.304 9.572 14.144 9.572C14.9653 9.572 15.6373 9.824 16.16 10.328C16.7013 10.8133 16.972 11.4293 16.972 12.176C16.972 12.904 16.7013 13.52 16.16 14.024C15.6373 14.5093 14.9653 14.752 14.144 14.752ZM16.524 16.376V32H11.736V16.376H16.524ZM29.5138 16.208C31.3431 16.208 32.7991 16.8053 33.8818 18C34.9831 19.176 35.5338 20.8 35.5338 22.872V32H30.7738V23.516C30.7738 22.4707 30.5031 21.6587 29.9618 21.08C29.4205 20.5013 28.6925 20.212 27.7778 20.212C26.8631 20.212 26.1351 20.5013 25.5938 21.08C25.0525 21.6587 24.7818 22.4707 24.7818 23.516V32H19.9938V16.376H24.7818V18.448C25.2671 17.7573 25.9205 17.216 26.7418 16.824C27.5631 16.4133 28.4871 16.208 29.5138 16.208Z" fill="#8F55EF"/>
</svg>
