<svg width="35" height="39" viewBox="0 0 35 39" fill="none" xmlns="http://www.w3.org/2000/svg">
<path d="M13.4985 37.3547L2.98299 36.3371C1.44282 36.188 0.64805 34.4214 1.55817 33.17L5.38106 27.9135C6.48351 26.3977 8.69058 26.2527 9.98183 27.6113L10.6453 28.3094C11.8583 29.5858 13.9047 29.5478 15.0696 28.2272L25.2206 16.7194C26.3439 15.446 26.1873 13.495 24.8754 12.417L21.439 9.59329C20.4464 8.77765 20.4692 7.25104 21.4858 6.46548L26.6966 2.43902C28.4521 1.08245 31.0219 2.03487 31.4693 4.20791L33.6933 15.0102C33.8861 15.9467 33.621 16.9189 32.9795 17.6279L16.0121 36.3814C15.3753 37.0851 14.4432 37.4461 13.4985 37.3547Z" stroke="#8F55EF" stroke-width="2"/>
</svg>
